<svg width="30" height="42" viewBox="0 0 30 42" fill="none" xmlns="http://www.w3.org/2000/svg">
<g style="mix-blend-mode:normal">
<path d="M1.67473e-06 37.3219V41.5259C1.67473e-06 41.8903 0.485296 42.0916 0.813026 41.8686L29.2247 22.719C29.4661 22.5571 29.6614 22.3496 29.7958 22.1126C29.9302 21.8755 30 21.6151 30 21.3512C30 21.0873 29.9302 20.8269 29.7958 20.5899C29.6614 20.3528 29.4661 20.1454 29.2247 19.9834L0.813026 0.833872C0.478993 0.610887 1.67473e-06 0.812117 1.67473e-06 1.17651V5.3806C1.67473e-06 5.64709 0.144958 5.90271 0.384453 6.06587L23.0735 21.3485L0.384453 36.6366C0.144958 36.7997 1.67473e-06 37.0554 1.67473e-06 37.3219V37.3219Z" fill="white"/>
</g>
</svg>
