<svg class="eventSVG" width="96" height="105" viewBox="0 0 96 105" fill="none" xmlns="http://www.w3.org/2000/svg">
                <path d="M96 14.5188C96 12.6405 95.1571 10.8391 93.6569 9.51096C92.1566 8.1828 90.1217 7.43665 88 7.43665H72V0.354492H64V7.43665H32V0.354492H24V7.43665H8C5.87827 7.43665 3.84344 8.1828 2.34315 9.51096C0.842854 10.8391 0 12.6405 0 14.5188V85.3403C0 87.2186 0.842854 89.02 2.34315 90.3482C3.84344 91.6763 5.87827 92.4225 8 92.4225H24V85.3403H8V14.5188H24V21.601H32V14.5188H64V21.601H72V14.5188H88V35.7653H96V14.5188Z" fill="black"/>
                <path d="M66 46.9551L75.5588 65.8864L96 68.919L81 83.6561L84.75 104.462L66 94.6399L47.25 104.462L51 83.6561L36 68.919L57 65.8864L66 46.9551Z" fill="black"/>
                </svg>
				